<svg id="Apple_Vintage_Watch" data-name="Apple Vintage Watch" xmlns="http://www.w3.org/2000/svg" viewBox="0 0 437 437"><defs><style>.cls-1{opacity:0.5;}.cls-2{fill:#000eee;}.cls-3{opacity:0.1;}.cls-4{opacity:0.35;}.cls-5{opacity:0.8;}.cls-6{fill:none;stroke:#000eee;stroke-linecap:round;stroke-miterlimit:10;stroke-width:5px;}</style></defs><g id="Crown_Out_Shade" data-name="Crown Out Shade" class="cls-1"><path class="cls-2" d="M218.5,5a213.44,213.44,0,0,1,151,364.47A213.5,213.5,0,1,1,135.4,21.78,212,212,0,0,1,218.5,5m0-5C97.83,0,0,97.83,0,218.5S97.83,437,218.5,437,437,339.17,437,218.5,339.17,0,218.5,0Z"/></g><g id="Crown_In_Shade" data-name="Crown In Shade" class="cls-1"><path class="cls-2" d="M218.5,41.42a177.09,177.09,0,0,1,125.22,302.3A177.09,177.09,0,0,1,93.28,93.28,176,176,0,0,1,218.5,41.42m0-5A182.08,182.08,0,1,0,400.58,218.5,182.08,182.08,0,0,0,218.5,36.42Z"/></g><g id="Inner_Shade" data-name="Inner Shade" class="cls-3"><path class="cls-2" d="M218.5,59.62A158.9,158.9,0,0,1,377.38,218.5,161.1,161.1,0,0,1,375,246.38c.18-3.21.28-6.44.28-9.67A168.93,168.93,0,0,0,133.05,84.54q2.3-1.47,4.64-2.86A158.71,158.71,0,0,1,218.5,59.62m0-5A163.81,163.81,0,0,0,76.25,137.08a163.89,163.89,0,0,1,272.36,181A163.87,163.87,0,0,0,218.5,54.62Z"/></g><g id="Dial" class="cls-1"><path class="cls-2" d="M218.5,59.62a158.9,158.9,0,1,1-112.34,46.54A157.83,157.83,0,0,1,218.5,59.62m0-5A163.88,163.88,0,1,0,382.38,218.5,163.88,163.88,0,0,0,218.5,54.62Z"/></g><g id="Indicators" class="cls-4"><path class="cls-2" d="M213,77.23A10.17,10.17,0,1,1,202.86,87.4,10.18,10.18,0,0,1,213,77.23m0-5A15.17,15.17,0,1,0,228.21,87.4,15.18,15.18,0,0,0,213,72.23Z"/><path class="cls-2" d="M349.6,213.79A10.18,10.18,0,1,1,339.43,224a10.18,10.18,0,0,1,10.17-10.17m0-5A15.18,15.18,0,1,0,364.77,224a15.17,15.17,0,0,0-15.17-15.17Z"/><path class="cls-2" d="M213,350.35a10.18,10.18,0,1,1-10.18,10.17A10.19,10.19,0,0,1,213,350.35m0-5a15.18,15.18,0,1,0,15.17,15.17A15.18,15.18,0,0,0,213,345.35Z"/><path class="cls-2" d="M76.47,213.79A10.18,10.18,0,1,1,66.3,224a10.19,10.19,0,0,1,10.17-10.17m0-5A15.18,15.18,0,1,0,91.65,224a15.17,15.17,0,0,0-15.18-15.17Z"/></g><g id="Indicators_Shades" data-name="Indicators Shades" class="cls-5"><path class="cls-6" d="M81.94,203.33A15.17,15.17,0,1,0,97.11,218.5,15.18,15.18,0,0,0,81.94,203.33ZM218.5,339.89a15.18,15.18,0,1,0,15.17,15.17A15.17,15.17,0,0,0,218.5,339.89Zm0-273.13a15.18,15.18,0,1,0,15.17,15.18A15.18,15.18,0,0,0,218.5,66.76ZM355.06,203.33a15.17,15.17,0,1,0,15.18,15.17A15.17,15.17,0,0,0,355.06,203.33Z"/></g></svg>